<svg xmlns="http://www.w3.org/2000/svg" width="151.18" height="33" viewBox="0 0 151.18 33">
  <g id="Group_38" data-name="Group 38" transform="translate(-417 -2719)">
    <g id="Component_1_15" data-name="Component 1 – 15" transform="translate(417 2719)">
      <path id="Path_20" data-name="Path 20" d="M33.789,23.8,22.58,22.759,18.127,12.42a.9.9,0,0,0-1.65,0L12.025,22.759.816,23.8a.9.9,0,0,0-.51,1.569L8.763,32.8,6.288,43.778a.9.9,0,0,0,1.335.97L17.3,39l9.679,5.747a.9.9,0,0,0,1.335-.97L25.842,32.8,34.3,25.367A.9.9,0,0,0,33.789,23.8Z" transform="translate(0 -11.877)" fill="#ffdc64"/>
      <path id="Path_21" data-name="Path 21" d="M18.127,12.42a.9.9,0,0,0-1.65,0L12.025,22.759.816,23.8a.9.9,0,0,0-.51,1.569L8.763,32.8,6.288,43.778a.9.9,0,0,0,1.335.97l2.16-1.283A39.615,39.615,0,0,1,20.329,17.532Z" transform="translate(0 -11.877)" fill="#ffc850"/>
    </g>
    <g id="Component_3_3" data-name="Component 3 – 3" transform="translate(454 2723)">
      <path id="Path_22" data-name="Path 22" d="M111.515,97.04a1.029,1.029,0,0,0-.9-.716l-8-.742L101.029,91.9a.383.383,0,0,0-.7.3L102,96.094a.384.384,0,0,0,.317.23l8.231.763a.276.276,0,0,1,.157.482l-6.21,5.456a.383.383,0,0,0-.121.372l1.818,8.064a.276.276,0,0,1-.41.3l-7.108-4.22a.384.384,0,0,0-.392,0l-7.108,4.22a.276.276,0,0,1-.41-.3L91.7,107.3a.383.383,0,1,0-.748-.169l-.938,4.163a1.043,1.043,0,0,0,1.55,1.126l6.912-4.1,6.912,4.1a1.029,1.029,0,0,0,1.146-.053,1.029,1.029,0,0,0,.4-1.073l-1.767-7.842,6.039-5.305A1.029,1.029,0,0,0,111.515,97.04Z" transform="translate(-85.388 -87.568)"/>
      <path id="Path_23" data-name="Path 23" d="M14.936,14.23l-.888-2.062a1.043,1.043,0,0,0-1.916,0L8.952,19.55l-8,.742a1.043,1.043,0,0,0-.592,1.822L6.4,27.42l-.46,2.04a.383.383,0,1,0,.748.169l.51-2.262a.383.383,0,0,0-.121-.372L.863,21.539a.276.276,0,0,1,.157-.482l8.231-.763a.384.384,0,0,0,.317-.23l3.269-7.592a.276.276,0,0,1,.507,0l.888,2.062a.383.383,0,1,0,.7-.3Z" transform="translate(0 -11.537)"/>
    </g>
    <g id="Component_3_4" data-name="Component 3 – 4" transform="translate(484 2723)">
      <path id="Path_22-2" data-name="Path 22" d="M111.515,97.04a1.029,1.029,0,0,0-.9-.716l-8-.742L101.029,91.9a.383.383,0,0,0-.7.3L102,96.094a.384.384,0,0,0,.317.23l8.231.763a.276.276,0,0,1,.157.482l-6.21,5.456a.383.383,0,0,0-.121.372l1.818,8.064a.276.276,0,0,1-.41.3l-7.108-4.22a.384.384,0,0,0-.392,0l-7.108,4.22a.276.276,0,0,1-.41-.3L91.7,107.3a.383.383,0,1,0-.748-.169l-.938,4.163a1.043,1.043,0,0,0,1.55,1.126l6.912-4.1,6.912,4.1a1.029,1.029,0,0,0,1.146-.053,1.029,1.029,0,0,0,.4-1.073l-1.767-7.842,6.039-5.305A1.029,1.029,0,0,0,111.515,97.04Z" transform="translate(-85.388 -87.568)"/>
      <path id="Path_23-2" data-name="Path 23" d="M14.936,14.23l-.888-2.062a1.043,1.043,0,0,0-1.916,0L8.952,19.55l-8,.742a1.043,1.043,0,0,0-.592,1.822L6.4,27.42l-.46,2.04a.383.383,0,1,0,.748.169l.51-2.262a.383.383,0,0,0-.121-.372L.863,21.539a.276.276,0,0,1,.157-.482l8.231-.763a.384.384,0,0,0,.317-.23l3.269-7.592a.276.276,0,0,1,.507,0l.888,2.062a.383.383,0,1,0,.7-.3Z" transform="translate(0 -11.537)"/>
    </g>
    <g id="Component_3_6" data-name="Component 3 – 6" transform="translate(513 2723)">
      <path id="Path_22-3" data-name="Path 22" d="M111.515,97.04a1.029,1.029,0,0,0-.9-.716l-8-.742L101.029,91.9a.383.383,0,0,0-.7.3L102,96.094a.384.384,0,0,0,.317.23l8.231.763a.276.276,0,0,1,.157.482l-6.21,5.456a.383.383,0,0,0-.121.372l1.818,8.064a.276.276,0,0,1-.41.3l-7.108-4.22a.384.384,0,0,0-.392,0l-7.108,4.22a.276.276,0,0,1-.41-.3L91.7,107.3a.383.383,0,1,0-.748-.169l-.938,4.163a1.043,1.043,0,0,0,1.55,1.126l6.912-4.1,6.912,4.1a1.029,1.029,0,0,0,1.146-.053,1.029,1.029,0,0,0,.4-1.073l-1.767-7.842,6.039-5.305A1.029,1.029,0,0,0,111.515,97.04Z" transform="translate(-85.388 -87.568)"/>
      <path id="Path_23-3" data-name="Path 23" d="M14.936,14.23l-.888-2.062a1.043,1.043,0,0,0-1.916,0L8.952,19.55l-8,.742a1.043,1.043,0,0,0-.592,1.822L6.4,27.42l-.46,2.04a.383.383,0,1,0,.748.169l.51-2.262a.383.383,0,0,0-.121-.372L.863,21.539a.276.276,0,0,1,.157-.482l8.231-.763a.384.384,0,0,0,.317-.23l3.269-7.592a.276.276,0,0,1,.507,0l.888,2.062a.383.383,0,1,0,.7-.3Z" transform="translate(0 -11.537)"/>
    </g>
    <g id="Component_3_7" data-name="Component 3 – 7" transform="translate(542 2723)">
      <path id="Path_22-4" data-name="Path 22" d="M111.515,97.04a1.029,1.029,0,0,0-.9-.716l-8-.742L101.029,91.9a.383.383,0,0,0-.7.3L102,96.094a.384.384,0,0,0,.317.23l8.231.763a.276.276,0,0,1,.157.482l-6.21,5.456a.383.383,0,0,0-.121.372l1.818,8.064a.276.276,0,0,1-.41.3l-7.108-4.22a.384.384,0,0,0-.392,0l-7.108,4.22a.276.276,0,0,1-.41-.3L91.7,107.3a.383.383,0,1,0-.748-.169l-.938,4.163a1.043,1.043,0,0,0,1.55,1.126l6.912-4.1,6.912,4.1a1.029,1.029,0,0,0,1.146-.053,1.029,1.029,0,0,0,.4-1.073l-1.767-7.842,6.039-5.305A1.029,1.029,0,0,0,111.515,97.04Z" transform="translate(-85.388 -87.568)"/>
      <path id="Path_23-4" data-name="Path 23" d="M14.936,14.23l-.888-2.062a1.043,1.043,0,0,0-1.916,0L8.952,19.55l-8,.742a1.043,1.043,0,0,0-.592,1.822L6.4,27.42l-.46,2.04a.383.383,0,1,0,.748.169l.51-2.262a.383.383,0,0,0-.121-.372L.863,21.539a.276.276,0,0,1,.157-.482l8.231-.763a.384.384,0,0,0,.317-.23l3.269-7.592a.276.276,0,0,1,.507,0l.888,2.062a.383.383,0,1,0,.7-.3Z" transform="translate(0 -11.537)"/>
    </g>
  </g>
</svg>
