<svg xmlns="http://www.w3.org/2000/svg" width="174.606" height="33" viewBox="0 0 174.606 33">
  <g id="Group_42" data-name="Group 42" transform="translate(-417 -2596)">
    <g id="Component_1_2" data-name="Component 1 – 2" transform="translate(417 2596)">
      <path id="Path_20" data-name="Path 20" d="M33.789,23.8,22.58,22.759,18.127,12.42a.9.9,0,0,0-1.65,0L12.025,22.759.816,23.8a.9.9,0,0,0-.51,1.569L8.763,32.8,6.288,43.778a.9.9,0,0,0,1.335.97L17.3,39l9.679,5.747a.9.9,0,0,0,1.335-.97L25.842,32.8,34.3,25.367A.9.9,0,0,0,33.789,23.8Z" transform="translate(0 -11.877)" fill="#ffdc64"/>
      <path id="Path_21" data-name="Path 21" d="M18.127,12.42a.9.9,0,0,0-1.65,0L12.025,22.759.816,23.8a.9.9,0,0,0-.51,1.569L8.763,32.8,6.288,43.778a.9.9,0,0,0,1.335.97l2.16-1.283A39.615,39.615,0,0,1,20.329,17.532Z" transform="translate(0 -11.877)" fill="#ffc850"/>
    </g>
    <g id="Component_1_3" data-name="Component 1 – 3" transform="translate(452 2596)">
      <path id="Path_20-2" data-name="Path 20" d="M33.789,23.8,22.58,22.759,18.127,12.42a.9.9,0,0,0-1.65,0L12.025,22.759.816,23.8a.9.9,0,0,0-.51,1.569L8.763,32.8,6.288,43.778a.9.9,0,0,0,1.335.97L17.3,39l9.679,5.747a.9.9,0,0,0,1.335-.97L25.842,32.8,34.3,25.367A.9.9,0,0,0,33.789,23.8Z" transform="translate(0 -11.877)" fill="#ffdc64"/>
      <path id="Path_21-2" data-name="Path 21" d="M18.127,12.42a.9.9,0,0,0-1.65,0L12.025,22.759.816,23.8a.9.9,0,0,0-.51,1.569L8.763,32.8,6.288,43.778a.9.9,0,0,0,1.335.97l2.16-1.283A39.615,39.615,0,0,1,20.329,17.532Z" transform="translate(0 -11.877)" fill="#ffc850"/>
    </g>
    <g id="Component_1_4" data-name="Component 1 – 4" transform="translate(487 2596)">
      <path id="Path_20-3" data-name="Path 20" d="M33.789,23.8,22.58,22.759,18.127,12.42a.9.9,0,0,0-1.65,0L12.025,22.759.816,23.8a.9.9,0,0,0-.51,1.569L8.763,32.8,6.288,43.778a.9.9,0,0,0,1.335.97L17.3,39l9.679,5.747a.9.9,0,0,0,1.335-.97L25.842,32.8,34.3,25.367A.9.9,0,0,0,33.789,23.8Z" transform="translate(0 -11.877)" fill="#ffdc64"/>
      <path id="Path_21-3" data-name="Path 21" d="M18.127,12.42a.9.9,0,0,0-1.65,0L12.025,22.759.816,23.8a.9.9,0,0,0-.51,1.569L8.763,32.8,6.288,43.778a.9.9,0,0,0,1.335.97l2.16-1.283A39.615,39.615,0,0,1,20.329,17.532Z" transform="translate(0 -11.877)" fill="#ffc850"/>
    </g>
    <g id="Component_1_5" data-name="Component 1 – 5" transform="translate(522 2596)">
      <path id="Path_20-4" data-name="Path 20" d="M33.789,23.8,22.58,22.759,18.127,12.42a.9.9,0,0,0-1.65,0L12.025,22.759.816,23.8a.9.9,0,0,0-.51,1.569L8.763,32.8,6.288,43.778a.9.9,0,0,0,1.335.97L17.3,39l9.679,5.747a.9.9,0,0,0,1.335-.97L25.842,32.8,34.3,25.367A.9.9,0,0,0,33.789,23.8Z" transform="translate(0 -11.877)" fill="#ffdc64"/>
      <path id="Path_21-4" data-name="Path 21" d="M18.127,12.42a.9.9,0,0,0-1.65,0L12.025,22.759.816,23.8a.9.9,0,0,0-.51,1.569L8.763,32.8,6.288,43.778a.9.9,0,0,0,1.335.97l2.16-1.283A39.615,39.615,0,0,1,20.329,17.532Z" transform="translate(0 -11.877)" fill="#ffc850"/>
    </g>
    <g id="Component_1_6" data-name="Component 1 – 6" transform="translate(557 2596)">
      <path id="Path_20-5" data-name="Path 20" d="M33.789,23.8,22.58,22.759,18.127,12.42a.9.9,0,0,0-1.65,0L12.025,22.759.816,23.8a.9.9,0,0,0-.51,1.569L8.763,32.8,6.288,43.778a.9.9,0,0,0,1.335.97L17.3,39l9.679,5.747a.9.9,0,0,0,1.335-.97L25.842,32.8,34.3,25.367A.9.9,0,0,0,33.789,23.8Z" transform="translate(0 -11.877)" fill="#ffdc64"/>
      <path id="Path_21-5" data-name="Path 21" d="M18.127,12.42a.9.9,0,0,0-1.65,0L12.025,22.759.816,23.8a.9.9,0,0,0-.51,1.569L8.763,32.8,6.288,43.778a.9.9,0,0,0,1.335.97l2.16-1.283A39.615,39.615,0,0,1,20.329,17.532Z" transform="translate(0 -11.877)" fill="#ffc850"/>
    </g>
  </g>
</svg>
