<svg id="Layer_2" data-name="Layer 2" xmlns="http://www.w3.org/2000/svg" width="372.66" height="437.538" viewBox="0 0 372.66 437.538">
  <g id="Слой_1" data-name="Слой 1">
    <g id="_3" data-name="3">
      <g id="CHAIR" transform="translate(209.68 147.352)">
        <path id="Path_524" data-name="Path 524" d="M313.117,899.61l-50.851,54.832a23.9,23.9,0,0,0-9.186,18.833v57.674a13.231,13.231,0,0,0,13.231,13.231h66.145" transform="translate(-253.08 -757.006)" fill="none" stroke="#d8baa3" stroke-linecap="round" stroke-miterlimit="10" stroke-width="6"/>
        <path id="Path_525" data-name="Path 525" d="M3,591.071H3a8.7,8.7,0,0,0,8.7,8.7H137.356a25.491,25.491,0,0,0,25.488-25.485v-99.73a17.385,17.385,0,0,0-17.4-17.389H80.922a11.868,11.868,0,0,0-11.871,11.871v87.843a25.485,25.485,0,0,1-25.485,25.485H11.7a8.7,8.7,0,0,0-8.7,8.7Z" transform="translate(-2.865 -457.17)" fill="#fff" stroke="#d8baa3" stroke-linecap="round" stroke-miterlimit="10" stroke-width="6"/>
        <path id="Path_526" data-name="Path 526" d="M3,597.456a8.7,8.7,0,0,0,8.358,6.272H137.011A25.491,25.491,0,0,0,162.5,578.243v-99.73a17.4,17.4,0,0,0-9.511-15.508,17.318,17.318,0,0,1,2.743,9.384v103.63a21.6,21.6,0,0,1-21.595,21.595H4.566A8.353,8.353,0,0,1,3,597.456Z" transform="translate(-2.52 -461.125)" fill="#f0e1d4" stroke="#d8baa3" stroke-linecap="round" stroke-miterlimit="10" stroke-width="6"/>
        <path id="Path_527" data-name="Path 527" d="M360.661,660.89H336.81A41.826,41.826,0,0,0,295,702.716v29.008" transform="translate(-294.797 -595.229)" fill="none" stroke="#d8baa3" stroke-linecap="round" stroke-miterlimit="10" stroke-width="6"/>
        <path id="Path_528" data-name="Path 528" d="M142.117,899.61,91.266,954.442a23.9,23.9,0,0,0-9.186,18.833v57.674a13.231,13.231,0,0,0,13.231,13.231h66.145" transform="translate(-26.965 -757.006)" fill="none" stroke="#d8baa3" stroke-linecap="round" stroke-miterlimit="10" stroke-width="6"/>
      </g>
      <g id="CHARACTER">
        <g id="RIGHT_HAND" data-name="RIGHT HAND" transform="translate(126.846 80.96)">
          <path id="HAND" d="M419.189,251.305s-23.812-3.545-38.12,27.738c-12.532,27.4-21.875,52.946-21.875,52.946s-19.313,10.8-51.8,22.362v15.5s49.543,2.878,66.074,0c12.154-2.114,45.694-47.1,48.024-77.619S419.189,251.305,419.189,251.305Z" transform="translate(-277.449 -251.184)" fill="#374486"/>
          <path id="ARM" d="M676.86,586.362c1.834-.371.5-6.072-.58-9.589-.6-1.934-2.021-2.927-3.919-3.761-3.777-1.67-10.314-2.643-14-1.837a20.806,20.806,0,0,0-12.248,7.526c-.967,1.125-5.721,6.536-5.721,7.98Z" transform="translate(-640.394 -467.843)" fill="#fab6ad"/>
        </g>
        <path id="TORSO" d="M139.014,211.612c20.531,2.114,60.166,27.042,53.607,118.575-4.19,58.532-42.619,87.862-47.264,85.87s-83.453-40.834-65.4-61.729c17.273-19.983,11.652-35.274,8.934-62.335s-6.8-56.511,15.149-66.7C139.607,208.786,133.525,211.045,139.014,211.612Z" transform="translate(152.376 -143.117)" fill="#3f4d90"/>
        <g id="LEGS" transform="translate(0 199.634)">
          <g id="RIGHT_LEG" data-name="RIGHT LEG" transform="translate(125.223 7.186)">
            <g id="SHOES" transform="translate(1.539 201.083)">
              <path id="Path_529" data-name="Path 529" d="M582.017,1341.409h56.14c.058-.9.074-1.747.061-2.579H581.952A13.118,13.118,0,0,0,582.017,1341.409Z" transform="translate(-581.917 -1315.211)" fill="#383c4d"/>
              <path id="Path_530" data-name="Path 530" d="M632.562,1265.55c-.2,6.388,5.718,10.433,5.718,23.632H582.143s-.815-11.071,10.411-13.624,21.434-5.963,22.456-9.992Z" transform="translate(-582.043 -1265.55)" fill="#ffb000"/>
            </g>
            <g id="PANT">
              <path id="Path_531" data-name="Path 531" d="M349.959,642.191s-85.683-5.589-106.5,19.954,19.6,126.056,23.68,181.407c0,0,20.5,2.127,28.828,0s15.571-109.383-5.4-135.352c0,0,76.523,19.129,107.61-5S362.9,642.642,349.959,642.191Z" transform="translate(-237.528 -641.673)" fill="#383c4d"/>
            </g>
          </g>
          <g id="LEFT_LEG" data-name="LEFT LEG">
            <g id="SHOE" transform="translate(0 137.854)">
              <path id="Path_532" data-name="Path 532" d="M1006.43,1067.2l44.531,35.644c.645-.8,1.2-1.589,1.712-2.353l-44.357-35.5A12.8,12.8,0,0,0,1006.43,1067.2Z" transform="translate(-1006.43 -1059.224)" fill="#41465a"/>
              <path id="Path_533" data-name="Path 533" d="M1031.081,1066.071c-3.887,4.938-1.553,11.906-9.257,22.375L977.29,1052.8s5.8-9.3,16.212-4.19,20.483,8.883,23.655,6.321Z" transform="translate(-975.446 -1047.081)" fill="#ffb000"/>
            </g>
            <g id="PANT-2" data-name="PANT" transform="translate(39.187)">
              <path id="Path_534" data-name="Path 534" d="M478.255,690.658c-1.289,7.21-70.983,27.906-148.554-23.184,0,0-12.035,67.389-90.425,112.094,0,0-17.26-7.671-21.953-18,0,0,55.3-70.68,74.989-127.958,8.27-24.025,112.294-11.455,127.5-6.53S483.979,658.53,478.255,690.658Z" transform="translate(-217.324 -619.378)" fill="#41465a"/>
            </g>
          </g>
        </g>
        <g id="LEFT_HAND" data-name="LEFT HAND" transform="translate(147.293 90.496)">
          <path id="HAND-2" data-name="HAND" d="M261.963,282.188c-17.95,5.963-43.212,59.077-43.212,59.077s-28.273,2.711-71.063,20.628c0,0-.986,9.312,4.651,16.941,0,0,47.058,6.1,71.534,3.594,8.277-.854,39.641-24.315,56.885-56.782C296.177,296.605,283.89,274.907,261.963,282.188Z" transform="translate(-111.895 -280.77)" fill="#49549a"/>
          <g id="ARM-2" data-name="ARM" transform="translate(0 76.215)">
            <path id="Path_535" data-name="Path 535" d="M609.016,522.437s-11.926-6.3-17.511-5.038-12.316,6.3-13.015,7.7-5.6,8.258-5.6,9.8,15.832.967,18.049.967,16.867.235,19.693-.351S609.016,522.437,609.016,522.437Z" transform="translate(-572.891 -517.233)" fill="#ffcfc9"/>
            <path id="Path_536" data-name="Path 536" d="M653.17,536.249c-2.23,0-18.05.561-18.05-.967s4.9-8.38,5.6-9.8,7.413-6.446,13.015-7.7c0,0-6.91,9.6-.551,18.472" transform="translate(-635.107 -517.61)" fill="#fab6ad"/>
          </g>
        </g>
        <g id="HEAD" transform="translate(226.177)">
          <path id="Path_537" data-name="Path 537" d="M266.56,122.5c-.358,2.785,5.853,16.792,16.934,27.683,9.724,9.55-32.1,16.941-33.2,16.7s-5.979-14.949-6.981-18.394S266.56,122.5,266.56,122.5Z" transform="translate(-218.923 -83.016)" fill="#ffcfc9"/>
          <path id="Path_538" data-name="Path 538" d="M301.5,149.6c.432,1.486,2.16,6.34,4.071,11.4,4.616-2.234,10.021-6.611,14.249-14.942,4.58-9.025,4.01-18.246,4.557-20.628a2.72,2.72,0,0,0-.206-1.289C320.523,127.573,300.592,146.467,301.5,149.6Z" transform="translate(-277.106 -84.128)" fill="#fab6ad"/>
          <path id="Path_539" data-name="Path 539" d="M302.425,63.625c-1.744,6.946-3.278,18.591-.906,24.244s6.559,16.041,8.2,16.586,19.687-1.821,23.877-9.669,4.377-14.4,4.922-16.76-9.3-21.511-21.872-21.147S302.931,61.611,302.425,63.625Z" transform="translate(-290.881 -38.542)" fill="#ffcfc9"/>
          <path id="Path_540" data-name="Path 540" d="M240.619,21.636c3.342,1.37.809,5.247,7.091,5.827s7.736-7.12,7.736-7.12a6.127,6.127,0,0,0,3.868,4.129s-1.679-3.262.728-4.7a2.879,2.879,0,0,1,3.887.487,2.327,2.327,0,0,1,3.223,1.457c1.125,2.508-.9,4.01-3.545,4.3,0,0-.242,3.726,5.669,4.293s7.13-3.078,7.13-3.078.967-.893,1.38,1.7-1.612,6.8,2.511,10.127a11.4,11.4,0,0,0,3.072,2c-2.079,1.8-1.073,7.258,3.639,9.486,6.4,3.027,11.091.79,11.674-3.632.525-3.993-2.021-2.427-1.37-5.505,0,0,4.167,3.049,6.865-1.392,2.2-3.629-1.65-5.9-1.65-5.9s2.746-3.765.464-6.395c-2.578-3-6.611-1.057-6.021-2.92s2.13-6.24-.377-8.683-6.485-1.46-7.049-2.756.239-3.223,2.83-2.1a5.776,5.776,0,0,0-2.579-4.138c-2.3-1.55-5.7-1.189-8.058-.5-.4-2.111-1.4-4.69-3.942-5.889-4.219-1.976-7.229.432-8.876,2.488A3.935,3.935,0,0,0,265.566.563c-5.022-.728-9.154.577-10.121,4.625-1.022,4.264-8.48-5.566-11.99,2.836-.719,1.718,1.157,3.075-.967,4.458-1.2.783-2.746-1.773-1.544-2.669a7.288,7.288,0,0,0-3.549,3.133C236.751,14.081,235.233,19.434,240.619,21.636Z" transform="translate(-236.698 0.002)" fill="#ffb000"/>
        </g>
      </g>
      <path id="CHAIR-2" data-name="CHAIR" d="M94.818,660.89H65.81A41.826,41.826,0,0,0,24,702.716v29.008" transform="translate(268.073 -447.877)" fill="none" stroke="#d8baa3" stroke-linecap="round" stroke-miterlimit="10" stroke-width="6"/>
      <g id="TABLE" transform="translate(40.047 195.019)">
        <path id="Path_541" data-name="Path 541" d="M495.42,605.06H661.646a4.673,4.673,0,0,1,4.674,4.673h0a4.673,4.673,0,0,1-4.674,4.674H495.42Z" transform="translate(-495.42 -605.06)" fill="#fff"/>
        <path id="Path_542" data-name="Path 542" d="M495.42,605.06H661.646a4.673,4.673,0,0,1,4.674,4.673h0a4.673,4.673,0,0,1-4.674,4.674H495.42" transform="translate(-495.42 -605.06)" fill="none" stroke="#d8baa3" stroke-miterlimit="10" stroke-width="6"/>
        <path id="Path_543" data-name="Path 543" d="M871.357,866.7,844.522,641.869a4.453,4.453,0,0,0-8.732-.193L802.36,865.438" transform="translate(-799.388 -627.514)" fill="none" stroke="#d8baa3" stroke-linecap="round" stroke-miterlimit="10" stroke-width="6"/>
      </g>
      <g id="LAPTOP" transform="translate(27.695 120.255)">
        <rect id="Rectangle_84" data-name="Rectangle 84" width="134.172" height="8.238" rx="4.119" transform="translate(27.018 66.113)" fill="#fff" stroke="#d8baa3" stroke-miterlimit="10" stroke-width="6"/>
        <path id="Path_544" data-name="Path 544" d="M688.4,439.071h93.722a3.164,3.164,0,0,0,3.075-4.406l-26.475-56.314a9.446,9.446,0,0,0-8.6-5.25H656.4a3.162,3.162,0,0,0-3.072,4.406L679.8,433.817A9.442,9.442,0,0,0,688.4,439.071Z" transform="translate(-653.037 -373.1)" fill="#fff" stroke="#d8baa3" stroke-miterlimit="10" stroke-width="6"/>
      </g>
    </g>
  </g>
</svg>
