<svg id="star" xmlns="http://www.w3.org/2000/svg" width="34.606" height="33" viewBox="0 0 34.606 33">
  <path id="Path_20" data-name="Path 20" d="M33.789,23.8,22.58,22.759,18.127,12.42a.9.9,0,0,0-1.65,0L12.025,22.759.816,23.8a.9.9,0,0,0-.51,1.569L8.763,32.8,6.288,43.778a.9.9,0,0,0,1.335.97L17.3,39l9.679,5.747a.9.9,0,0,0,1.335-.97L25.842,32.8,34.3,25.367A.9.9,0,0,0,33.789,23.8Z" transform="translate(0 -11.877)" fill="#ffdc64"/>
  <path id="Path_21" data-name="Path 21" d="M18.127,12.42a.9.9,0,0,0-1.65,0L12.025,22.759.816,23.8a.9.9,0,0,0-.51,1.569L8.763,32.8,6.288,43.778a.9.9,0,0,0,1.335.97l2.16-1.283A39.615,39.615,0,0,1,20.329,17.532Z" transform="translate(0 -11.877)" fill="#ffc850"/>
</svg>
