<svg xmlns="http://www.w3.org/2000/svg" width="153.167" height="306.688" viewBox="0 0 153.167 306.688">
  <g id="Layer_2" data-name="Layer 2" style="isolation: isolate">
    <g id="Слой_1" data-name="Слой 1" transform="translate(0 0)">
      <g id="_4" data-name="4">
        <g id="CHAIR" transform="translate(9.861 176.127)">
          <path id="Path_596" data-name="Path 596" d="M444.65,868.5,435.17,761.87a6.539,6.539,0,0,0-6.5-5.81h0a6.539,6.539,0,0,0-6.5,5.81L410.16,868.5" transform="translate(-406.842 -740.699)" fill="none" stroke="#ffb000" stroke-linecap="round" stroke-miterlimit="10" stroke-width="5"/>
          <path id="Path_597" data-name="Path 597" d="M185.65,868.5l-9.48-106.627a6.539,6.539,0,0,0-6.5-5.81h0a6.539,6.539,0,0,0-6.5,5.81L151.16,868.5" transform="translate(-82.245 -740.699)" fill="none" stroke="#ffb000" stroke-linecap="round" stroke-miterlimit="10" stroke-width="5"/>
          <path id="Path_598" data-name="Path 598" d="M128.07,704.156c0,4.83,24.456,8.745,54.625,8.745s54.628-3.918,54.628-8.745c0-.828-.717-1.629-2.059-2.386-6.489-3.67-27.569-6.36-52.569-6.36s-46.078,2.682-52.566,6.36C128.787,702.527,128.07,703.327,128.07,704.156Z" transform="translate(-128.07 -695.41)" fill="#dbdaff"/>
          <path id="Path_599" data-name="Path 599" d="M136.2,701.77c5.777,4.268,27.12,7.433,52.566,7.433s46.794-3.166,52.569-7.433c-6.489-3.67-27.569-6.36-52.569-6.36S142.689,698.092,136.2,701.77Z" transform="translate(-134.141 -695.41)" fill="#fff"/>
          <ellipse id="Ellipse_175" data-name="Ellipse 175" cx="54.625" cy="8.745" rx="54.625" ry="8.745" transform="translate(0.003)" fill="none" stroke="#6562cf" stroke-miterlimit="10" stroke-width="5"/>
        </g>
        <g id="WOMAN">
          <g id="LEFT_HAND" data-name="LEFT HAND" transform="translate(77.158 34.786)">
            <path id="Path_600" data-name="Path 600" d="M.39,154.9s1.251,30.246,3.857,35.8,18.033,31.112,24.111,30.519c11.5-1.14,27.974-55.041,29.987-61.773h0a8.074,8.074,0,0,1,3.726-3.434c8.219-3.847,9.657-7,11.377-9.809l1.236-8.29c-3.753-2.2-6.8,3.954-7.806,5.412-2.685,3.875-6.1,2.943-7.317,2.786-1.793-.238.9-2.388,1.93-4.336,1.487-2.809-.443-4.427-.443-4.427-.37,1.479-6.585,8.229-8.568,10.549-1.824,2.13-1.651,6.567-1.611,7.284h0c-2.482,3.779-21.642,36.6-21.642,36.6s-10.8-25.915-15.2-30.732C10.84,157.564,3.432,155.892.39,154.9Z" transform="translate(-0.39 -137.35)" fill="#ffd1cb"/>
            <path id="Path_601" data-name="Path 601" d="M1.5,148.072a9.38,9.38,0,0,1,2.226-4.513s.552-3.255,2.751-3.8" transform="translate(67.537 -139.15)" fill="none" stroke="#eeb9af" stroke-linecap="round" stroke-miterlimit="10" stroke-width="3"/>
            <path id="Path_602" data-name="Path 602" d="M1.6,146.721a9.423,9.423,0,0,1,2.444-4.4s1.824-4.47,4.2-3.242" transform="translate(65.742 -138.482)" fill="none" stroke="#eeb9af" stroke-linecap="round" stroke-miterlimit="10" stroke-width="3"/>
          </g>
          <g id="LEGS" transform="translate(74.404 162.115)">
            <g id="LEFT" transform="translate(24.046 1.304)">
              <path id="Path_603" data-name="Path 603" d="M89.154,1130.888h3.019l-.152-8.358,3.718,8.358h22.913s.4-4.731-3.376-5.387c-3.2-.557-6.241-3.926-6.241-3.926L93.379,1106.43c-1.406,1.7-5.4,5.825-5.572,12.276A48.813,48.813,0,0,0,89.154,1130.888Z" transform="translate(-87.801 -989.623)" fill="#ffb000"/>
              <path id="Path_604" data-name="Path 604" d="M64.73,645.313c4.929.671,12.585,9.505,6.552,26.928S42.9,756.79,43.124,761.835c.3,6.74,7.246,15.348,7.246,15.348s-7.4,3.875-11.828-2.368a20.814,20.814,0,0,1-3.829-12.777s-1.786-54.666,4.812-89.015C42.556,657.288,55.871,644.1,64.73,645.313Z" transform="translate(-29.134 -645.236)" fill="#ffd1cb"/>
              <path id="Path_605" data-name="Path 605" d="M50.88,783.6c1.955.061,3.956.061,5.985-.013a68,68,0,0,0,24.512-5.276c.507-1.484.97-2.877,1.411-4.166a82.031,82.031,0,0,1-25.922,4.883q-2.4.089-4.729.084h0C51.731,780.537,51.311,782.037,50.88,783.6Z" transform="translate(-42.572 -741.5)" fill="#f3c2b9"/>
            </g>
            <g id="RIGHT" transform="translate(0)">
              <path id="Path_606" data-name="Path 606" d="M177.614,1130.888h3.019l-.149-8.343,4.984,8.343h22.151s.4-4.731-3.376-5.387c-3.2-.557-6.747-3.926-6.747-3.926l-15.657-15.146c-1.406,1.7-5.4,5.825-5.572,12.276a48.952,48.952,0,0,0,1.347,12.182Z" transform="translate(-175.126 -988.319)" fill="#ffc440"/>
              <path id="Path_607" data-name="Path 607" d="M182.244,641.823c3.987,2.971,8.036,9.657,2.006,27.08s-21.992,84.053-21.589,89.088,7.246,15.348,7.246,15.348-7.4,3.875-11.828-2.368a20.813,20.813,0,0,1-3.829-12.777s-11.06-50.1-4.787-83.43C152.9,656.465,171.169,633.566,182.244,641.823Z" transform="translate(-147.537 -640.087)" fill="#ffd1cb"/>
              <path id="Path_608" data-name="Path 608" d="M171.86,782.389a108.907,108.907,0,0,0,30.864,5.678h.091c.431-1.568.851-3.067,1.266-4.488a152.486,152.486,0,0,1-31.836-3.45C172.1,780.877,171.976,781.629,171.86,782.389Z" transform="translate(-170.461 -744.661)" fill="#f3c2b9"/>
            </g>
          </g>
          <path id="SKIRT" d="M144.66,577.064s4.014-22.88-11.691-33S71.4,525.617,73.4,515.327l-40.174-.907s-9.085,13.244-10.556,27.292c-1.707,16.263,1.97,28.554,35.2,28.485,17.835-.038,15.374,11,15.374,11a148.029,148.029,0,0,0,38.723,3.883C133.146,584.328,144.66,577.064,144.66,577.064Z" transform="translate(0.778 -384.133)" fill="#424d76"/>
          <path id="TORSO" d="M293.968,194.86a62.44,62.44,0,0,1,7.765,2.986s7.345,27.86,9.118,31.606,2.93,9.774-4.559,15.151l-7.6,32.583H258.563s-3.095-34.05-5.215-45.943.529-34.645.529-34.645l14.862-1.737Z" transform="translate(-224.575 -145.508)" fill="#ffb000"/>
          <g id="RIGHT_HAND" data-name="RIGHT HAND" transform="translate(0 51.082)">
            <path id="Path_609" data-name="Path 609" d="M220.839,274.033c1.773,10.615,62.712,8.479,66.651,8.33.942.975,4.263,4.133,7.092,3.515,3.338-.734,6.165-2.725,8.219-1.758s4.409,2.984,5.792,2.887a15.53,15.53,0,0,0,4.8-1.064,46.737,46.737,0,0,0-3.146-4.027c1.211.542,2.849,1.694,3.738,2.12a1.91,1.91,0,0,0,2.32-.418,48.789,48.789,0,0,0-4.143-3.391c-1.046-.633-4.306-2.183-5.891-2.3-1.915-.279-13.281-2.533-18.514-2v.048c-2.295-.615-44.3-11.848-47.255-12.484,0,0,10.427-34.212,11.838-39.857s1.887-22.346-2.4-21.941c-2.786.266-9.118.866-12.808,9.348C234.5,217.075,218.636,260.931,220.839,274.033Z" transform="translate(-220.63 -201.691)" fill="#ffd1cb"/>
            <path id="Path_610" data-name="Path 610" d="M249.6,516.269s-4.559-4.764-5.747-5.065c-2.1-.522-4.853-1.213-4.853-1.213" transform="translate(-158.58 -431.907)" fill="none" stroke="#eeb9af" stroke-linecap="round" stroke-miterlimit="10" stroke-width="3"/>
            <path id="Path_611" data-name="Path 611" d="M257.594,520.532s-3.936-3.715-5.131-4.012c-2.1-.522-4.853-1.211-4.853-1.211" transform="translate(-168.755 -435.879)" fill="none" stroke="#eeb9af" stroke-linecap="round" stroke-miterlimit="10" stroke-width="3"/>
          </g>
          <g id="HEAD" transform="translate(16.021)">
            <g id="NECK" transform="translate(28.154 28.11)">
              <path id="Path_612" data-name="Path 612" d="M344.5,115.724c0,1.193-2.5,9.014,5.1,16.508,0,0-10.534,3.911-25.218,0,0,0,4.237-16.364,4.136-21.242Z" transform="translate(-324.39 -110.99)" fill="#ffd1cb"/>
              <path id="Path_613" data-name="Path 613" d="M335.015,116.041c.76,7.851,9.021,14.074,16.873,14.371-4.25-6.372-2.416-12.253-2.416-13.276l-14.2-4.255A19.567,19.567,0,0,0,335.015,116.041Z" transform="translate(-329.357 -112.401)" fill="#f3c2b9"/>
            </g>
            <g id="HAIR">
              <path id="Path_614" data-name="Path 614" d="M361.01,17.771c.907-1.064,1.464-7.938-2.292-11.187-7.137-6.18-20.325-8.8-28.23-4.371-7.623,4.263-10.66,9.9-9.434,20.819,1.17,10.442,3.7,12.555-2.786,20.277-5.825,6.942-7.631,16.739-4.1,24.957,8.624,20.046-8.1,19.621-8.1,29.744h25.92s18.1-15.675,9.257-35.164c-7.915-17.435-9.293-23.412-3.629-32.925C340.591,24.911,361.01,17.771,361.01,17.771Z" transform="translate(-303.664 -0.002)" fill="#424d76"/>
              <path id="Path_615" data-name="Path 615" d="M449.9,6.19c-6.669,2.171-15.156,9.905-13.93,20.819,1.17,10.442,3.7,12.557-2.773,20.277-5.825,6.942-7.631,16.741-4.1,24.957,8.611,20.049-8.1,19.623-8.1,29.744" transform="translate(-421 -4.623)" fill="none" stroke="#424d76" stroke-miterlimit="10" stroke-width="3"/>
            </g>
            <path id="HEAD-2" data-name="HEAD" d="M314.36,50.356s-4.052-.522-4.318.95c-.532,2.991,3.938,4.159,3.938,4.159s.81,2.181,1.811,4.371c.59,1.294,9.541,5.544,13.591,5.119S337.317,54,337.365,44.6c.041-6.821-2.183-10.384-6.871-10.384-6.534,0-9.589,4.843-14.064,3.46A12.689,12.689,0,0,1,314.36,50.356Z" transform="translate(-280.348 -25.554)" fill="#ffd1cb"/>
            <g id="GLASSES" transform="translate(29.44 18.296)">
              <ellipse id="Ellipse_176" data-name="Ellipse 176" cx="4.764" cy="4.764" rx="4.764" ry="4.764" transform="translate(21.842)" fill="none" stroke="#ffb000" stroke-miterlimit="10" stroke-width="4"/>
              <ellipse id="Ellipse_177" data-name="Ellipse 177" cx="4.764" cy="4.764" rx="4.764" ry="4.764" transform="translate(9.961)" fill="none" stroke="#ffb000" stroke-miterlimit="10" stroke-width="4"/>
              <line id="Line_82" data-name="Line 82" x1="2.355" transform="translate(19.489 4.764)" fill="none" stroke="#ffb000" stroke-miterlimit="10" stroke-width="4"/>
              <line id="Line_83" data-name="Line 83" x1="9.961" transform="translate(0 4.764)" fill="none" stroke="#ffb000" stroke-miterlimit="10" stroke-width="4"/>
            </g>
          </g>
        </g>
      </g>
    </g>
  </g>
</svg>
