<svg xmlns="http://www.w3.org/2000/svg" width="72.361" height="72.614" viewBox="0 0 72.361 72.614">
  <g id="Page-4" style="isolation: isolate">
    <path id="Shape" d="M47.834,32.526l9.494,6.729a1.254,1.254,0,0,0,1.383,0l9.494-6.729a7.554,7.554,0,0,0,3.134-6.084V12.154a1.2,1.2,0,0,0-.737-1.106L58.435,5.794a1.571,1.571,0,0,0-.922,0L45.437,11.048a1.2,1.2,0,0,0-.737,1.106V26.442A7.426,7.426,0,0,0,47.834,32.526ZM47.1,12.984l10.877-4.7,10.877,4.7v13.55a5.284,5.284,0,0,1-2.12,4.148l-8.757,6.268-8.757-6.268a5.11,5.11,0,0,1-2.12-4.056Z" transform="translate(-3.496 -0.471)" fill="#84c225"/>
    <path id="Shape-2" d="M55.251,30.086A1.257,1.257,0,0,0,56.91,29.9l9.679-12.168a1.18,1.18,0,1,0-1.844-1.475L55.8,27.413l-3.964-2.95a1.18,1.18,0,0,0-1.659.277,1.193,1.193,0,0,0,.277,1.659Z" transform="translate(-3.907 -1.257)" fill="#84c225"/>
    <path id="Shape-3" d="M2.4,64.159h1.2v4.885A3.6,3.6,0,0,0,7.19,72.639h7.282a3.6,3.6,0,0,0,3.595-3.595V64.159H47.1v4.885A3.6,3.6,0,0,0,50.7,72.639h7.282a3.6,3.6,0,0,0,3.595-3.595h0V64.159h1.2a2.38,2.38,0,0,0,2.4-2.4V43.6a6.046,6.046,0,0,0-2.12-4.609l4.148-2.95A12.277,12.277,0,0,0,72.361,26V8.482a1.2,1.2,0,0,0-.737-1.106L54.939.094a1.571,1.571,0,0,0-.922,0L37.056,7.468a1.2,1.2,0,0,0-.737,1.106v4.793H17.975a6.072,6.072,0,0,0-5.715,4.056L5.162,37.7A5.892,5.892,0,0,0,0,43.6V61.762a2.44,2.44,0,0,0,2.4,2.4Zm13.366,4.885a1.22,1.22,0,0,1-1.2,1.2H7.282a1.22,1.22,0,0,1-1.2-1.2h0V64.159h9.679Zm-4.885-7.282H8.48v-2.4h2.4Zm48.486,7.282a1.22,1.22,0,0,1-1.2,1.2H50.883a1.22,1.22,0,0,1-1.2-1.2h0V64.159h9.679Zm-2.489-7.282h-2.4v-2.4h2.4ZM38.715,9.312,54.478,2.491,70.24,9.312V26a9.83,9.83,0,0,1-4.148,8.02L54.57,42.22,42.955,34.108a9.958,9.958,0,0,1-4.148-8.02ZM56.875,44.8a1.22,1.22,0,0,1,1.2,1.2v2.4a1.22,1.22,0,0,1-1.2,1.2H49.592a1.22,1.22,0,0,1-1.2-1.2A3.6,3.6,0,0,1,51.989,44.8h4.885ZM36.319,20.558v2.489h-8.48v-2.4h8.48Zm0-2.4h-2.4v-2.4h2.4Zm-21.754,0a3.572,3.572,0,0,1,3.411-2.4H31.433v2.4H27.838a2.38,2.38,0,0,0-2.4,2.4h0v2.489a2.38,2.38,0,0,0,2.4,2.4h8.48v.645a12.4,12.4,0,0,0,5.162,10.048l2.028,1.475H7.743ZM2.4,43.6a3.6,3.6,0,0,1,3.595-3.595h41.02L50.7,42.589a6.036,6.036,0,0,0-4.609,5.9,3.6,3.6,0,0,0,3.595,3.595h7.282a3.6,3.6,0,0,0,3.595-3.595h0v-2.4a3.71,3.71,0,0,0-2.3-3.411l3.042-2.12a3.6,3.6,0,0,1,1.751,3.134V61.762H59.456v-2.4a2.38,2.38,0,0,0-2.4-2.4h-2.4a2.38,2.38,0,0,0-2.4,2.4h0v2.4H13.55v-2.4a2.38,2.38,0,0,0-2.4-2.4H8.48a2.38,2.38,0,0,0-2.4,2.4v2.4H2.4Z" transform="translate(0 -0.025)" fill="#333"/>
    <path id="Shape-4" d="M22.751,19.7H20.723a3.608,3.608,0,0,0-3.411,2.4L12.8,35a1.225,1.225,0,1,0,2.3.83l4.517-12.905a1.291,1.291,0,0,1,1.106-.83h2.028a1.22,1.22,0,0,0,1.2-1.2,1.162,1.162,0,0,0-1.2-1.2Z" transform="translate(-0.996 -1.564)" fill="#84c225"/>
    <path id="Shape-5" d="M8.895,55.679h7.282a3.6,3.6,0,0,0,3.595-3.595A6.078,6.078,0,0,0,13.688,46H8.895A3.6,3.6,0,0,0,5.3,49.595h0v2.4A3.62,3.62,0,0,0,8.895,55.679ZM7.7,49.595a1.22,1.22,0,0,1,1.2-1.2H13.78a3.6,3.6,0,0,1,3.595,3.595,1.22,1.22,0,0,1-1.2,1.2H8.895a1.22,1.22,0,0,1-1.2-1.2Z" transform="translate(-0.415 -3.621)" fill="#333"/>
    <path id="Shape-6" d="M26.1,63.579H43.057a2.38,2.38,0,0,0,2.4-2.4V56.3a2.38,2.38,0,0,0-2.4-2.4H26.1a2.38,2.38,0,0,0-2.4,2.4v4.885a2.324,2.324,0,0,0,2.4,2.4Zm0-7.282H43.057v4.885H26.1Z" transform="translate(-1.853 -4.239)" fill="#333"/>
  </g>
</svg>
