<svg xmlns="http://www.w3.org/2000/svg" width="72.655" height="72.637" viewBox="0 0 72.655 72.637">
  <g id="Page-3" style="isolation: isolate">
    <path id="Shape" d="M65.355,52.73a9.71,9.71,0,1,0-13.643-1.567A12.582,12.582,0,0,0,53.28,52.73,9.662,9.662,0,0,0,46,62.133v.922A9.93,9.93,0,0,0,41.665,60.2a8.509,8.509,0,1,0-11.983-1.106A12.514,12.514,0,0,0,30.788,60.2a8.928,8.928,0,0,0-4.24,2.858v-.922a9.765,9.765,0,0,0-7.282-9.4A9.71,9.71,0,1,0,7.19,37.521,9.766,9.766,0,0,0,5.623,51.163,12.582,12.582,0,0,0,7.19,52.73,9.789,9.789,0,0,0,0,62.133V73.01a2.38,2.38,0,0,0,2.4,2.4H70.24a2.38,2.38,0,0,0,2.4-2.4V62.133A9.662,9.662,0,0,0,65.355,52.73Zm-3.5,7.19a3.505,3.505,0,0,1-4.978,0c-1.106-1.291-1.291-3.5-1.2-5.07h7.467c0,1.475-.184,3.779-1.291,5.07ZM52.081,45.172a7.282,7.282,0,1,1,7.282,7.282,7.239,7.239,0,0,1-7.282-7.282ZM37.793,62.133l-1.475,2.489-1.475-2.489Zm-7.559-8.48a6.084,6.084,0,1,1,6.084,6.084,6.2,6.2,0,0,1-6.084-6.084Zm-5.992,8.48V73.01H14.564v-13l3.042-5.162A7.311,7.311,0,0,1,24.243,62.133Zm-9.4-7.282-1.475,2.489-1.475-2.489ZM6.084,45.172a7.282,7.282,0,1,1,7.282,7.282,7.239,7.239,0,0,1-7.282-7.282ZM2.4,62.133a7.16,7.16,0,0,1,6.637-7.19L12.075,60.1v13H2.4Zm24.243,7.19a7.2,7.2,0,0,1,5.531-7.006L35.3,67.571a1.2,1.2,0,0,0,1.659.369c.184-.092.277-.277.369-.369l3.134-5.254A7.282,7.282,0,0,1,46,69.323v3.595H26.64V69.323Zm43.6,3.687H48.394V62.133a7.41,7.41,0,0,1,4.7-6.821,9.778,9.778,0,0,0,1.844,6.176,5.371,5.371,0,0,0,3.134,1.751v1.291a1.2,1.2,0,0,0,2.4,0V63.147A5.371,5.371,0,0,0,63.6,61.4a9.778,9.778,0,0,0,1.844-6.176A7.4,7.4,0,0,1,70.24,62.04V73.01Z" transform="translate(0.018 -2.769)" fill="#333"/>
    <path id="Shape-2" d="M.644,31.341a1.117,1.117,0,0,0,1.383-.184c.277-.277,6.453-6.36,11.615-1.2.092,0,.092.092.184.092.092.092.184.092.184.184.092,0,.184.092.277.092h.277a.831.831,0,0,0,.461-.092h0c.092-.092.277-.184.369-.277h0a10.755,10.755,0,0,1,4.056-2.4c3.134-1.014,6.084-.277,8.757,2.4a1.273,1.273,0,0,0,.369.277h.092a.691.691,0,0,0,.461.092H29.4c.092,0,.092,0,.092-.092h.092c.092-.092.277-.092.369-.184v-.092c.092-.092.184-.184.184-.277V29.5a4.509,4.509,0,0,1,2.489-2.212v9.034a3.595,3.595,0,1,0,7.19,0h0V27.285A4.2,4.2,0,0,1,42.309,29.5v.184c.092.092.092.184.184.277v.092a.479.479,0,0,0,.369.184h.092a.09.09,0,0,1,.092.092h.277c.184,0,.277,0,.369-.092h.092c.092-.092.277-.092.369-.277,6.268-6.268,12.536-.277,12.813,0h0a.479.479,0,0,0,.369.184h.092a.691.691,0,0,0,.461.092h.277a.7.7,0,0,0,.461-.184c.092,0,.092-.092.184-.092,5.162-5.162,11.338.922,11.615,1.2a1.281,1.281,0,0,0,1.751,0,1.386,1.386,0,0,0,.369-1.014c0-.277-4.056-26.916-35.12-27.654V1.2a1.2,1.2,0,1,0-2.4,0V2.4C4.054,3.134.091,29.866,0,30.143A1.115,1.115,0,0,0,.644,31.341Zm15.486-5.07C17.236,21.109,20.923,10.324,33,5.807c-3.964,6.453-4.885,16.131-5.162,20.648a10.593,10.593,0,0,0-11.707-.184ZM37.515,36.319a1.2,1.2,0,0,1-2.4,0V26.732c.369,0,.83-.092,1.2-.092a5.256,5.256,0,0,1,1.2.092Zm-1.2-12.075a10.148,10.148,0,0,0-5.9,1.567c.369-5.162,1.567-14.933,5.9-20.279,4.332,5.346,5.531,15.117,5.9,20.279A10.148,10.148,0,0,0,36.317,24.243Zm8.388,2.3c-.277-4.517-1.2-14.2-5.162-20.648C51.9,10.324,55.49,21.2,56.5,26.363A10.415,10.415,0,0,0,44.705,26.548Zm24.8.737c-2.858-1.751-6.821-2.765-10.508-.461-.83-4.609-3.872-15.3-14.38-21.2C61.943,8.665,67.75,21.293,69.5,27.285ZM28.021,5.531c-10.508,5.9-13.55,16.592-14.38,21.2a8.125,8.125,0,0,0-4.517-1.383,11.142,11.142,0,0,0-5.9,1.844C4.976,21.293,10.691,8.665,28.021,5.531Z" transform="translate(0.019)" fill="#84c225"/>
  </g>
</svg>
