<svg xmlns="http://www.w3.org/2000/svg" width="72.628" height="72.453" viewBox="0 0 72.628 72.453">
  <g id="Page-1" style="isolation: isolate">
    <path id="Shape" d="M3.872,34.4A3.9,3.9,0,0,0,0,38.272a3.03,3.03,0,0,0,.369,1.567l4.7,10.416a13.427,13.427,0,0,0,2.673,3.779L15.21,61.5a2.221,2.221,0,0,0-.645,1.659v9.679a2.38,2.38,0,0,0,2.4,2.4H30.235a2.38,2.38,0,0,0,2.4-2.4V63.252a2.38,2.38,0,0,0-2.4-2.4V58.643a13.049,13.049,0,0,0-2.673-7.927,8.178,8.178,0,0,0-4.056-2.95,24.6,24.6,0,0,1-6.913-4.425,5.545,5.545,0,0,0-6.637-.369L7.374,36.8A3.69,3.69,0,0,0,3.872,34.4ZM30.235,72.931H16.961V63.252H30.235ZM7.927,44.079A15,15,0,0,0,10.969,48.6L16.5,54.126a1.24,1.24,0,1,0,1.844-1.659l-.092-.092-5.531-5.531A14.364,14.364,0,0,1,11.246,45a3.188,3.188,0,0,1,3.964.092,24.455,24.455,0,0,0,7.743,4.885A6.664,6.664,0,0,1,25.81,52.1a10.624,10.624,0,0,1,2.12,6.453v2.212H17.791L9.4,52.375a9.563,9.563,0,0,1-2.12-3.042l-4.7-10.416a1.489,1.489,0,0,1,.645-1.936,1.489,1.489,0,0,1,1.936.645v.092Z" transform="translate(0 -2.875)" fill="#333"/>
    <path id="Shape-2" d="M28.7,69.6H27.5a1.2,1.2,0,0,0,0,2.4h1.2a1.2,1.2,0,0,0,0-2.4Z" transform="translate(-2.057 -5.628)" fill="#333"/>
    <path id="Shape-3" d="M70.962,50.356l4.7-10.416a3.837,3.837,0,0,0-7.006-3.134V36.9l-2.581,6.084a5.545,5.545,0,0,0-6.637.369,23.886,23.886,0,0,1-6.913,4.425,8.6,8.6,0,0,0-4.056,2.95A13.049,13.049,0,0,0,45.8,58.652v2.212a2.38,2.38,0,0,0-2.4,2.4h0v9.679a2.38,2.38,0,0,0,2.4,2.4H59.07a2.44,2.44,0,0,0,2.4-2.4V63.261a2.65,2.65,0,0,0-.645-1.659l7.467-7.467A13.428,13.428,0,0,0,70.962,50.356ZM59.07,72.939H45.8V63.261H59.07Zm-.83-12.075H48.193V58.652a10.824,10.824,0,0,1,2.12-6.453,5.7,5.7,0,0,1,2.95-2.12,28.219,28.219,0,0,0,7.743-4.885A3.317,3.317,0,0,1,64.97,45.1,14.365,14.365,0,0,1,63.5,46.945l-5.531,5.531a1.2,1.2,0,0,0,.092,1.751,1.168,1.168,0,0,0,1.659,0L65.246,48.7a15,15,0,0,0,3.042-4.517l2.673-6.36a1.43,1.43,0,1,1,2.673,1.014v.092L68.841,49.342a11.973,11.973,0,0,1-2.12,3.042Z" transform="translate(-3.394 -2.883)" fill="#333"/>
    <path id="Shape-4" d="M51,69.6H49.8a1.2,1.2,0,0,0,0,2.4h1.291a1.22,1.22,0,0,0,1.2-1.2A1.376,1.376,0,0,0,51,69.6Z" transform="translate(-3.801 -5.628)" fill="#333"/>
    <path id="Shape-5" d="M48.991,42.971l.092-.092a23.823,23.823,0,0,0,8.2-8.112l.184-.184v-.092a22.823,22.823,0,0,0,0-22.768V11.63l-.092-.092a23.313,23.313,0,0,0-8.2-8.2l-.092-.092h-.092a22.823,22.823,0,0,0-22.768,0H26.13l-.092.092a23.313,23.313,0,0,0-8.2,8.2l-.092.092v.092a22.823,22.823,0,0,0,0,22.768v.092c0,.092.092.092.184.184a23.057,23.057,0,0,0,8.2,8.112l.092.092c.092,0,.092.092.184.092a22.651,22.651,0,0,0,22.676,0C48.9,42.971,48.9,42.971,48.991,42.971Zm-.184-2.765-1.2-2.12a18.273,18.273,0,0,0,4.978-4.978l2.12,1.2a21.147,21.147,0,0,1-5.9,5.9ZM16.912,24.259h2.4a17.48,17.48,0,0,0,1.844,6.821l-2.028,1.2A20.452,20.452,0,0,1,16.912,24.259Zm2.212-10.416,2.12,1.2A19.226,19.226,0,0,0,19.4,21.862H17A18.543,18.543,0,0,1,19.125,13.843Zm2.581,9.218a15.763,15.763,0,1,1,15.763,15.67h0A15.736,15.736,0,0,1,21.706,23.06ZM38.667,4.9V2.5a22.021,22.021,0,0,1,8.02,2.12l-1.2,2.12A19.226,19.226,0,0,0,38.667,4.9Zm-2.4,0a17.48,17.48,0,0,0-6.821,1.844l-1.2-2.12A20.332,20.332,0,0,1,36.27,2.5ZM58.024,21.862H55.535a17.48,17.48,0,0,0-1.844-6.821l2.12-1.2A20.03,20.03,0,0,1,58.024,21.862ZM55.812,32.278l-2.12-1.2a19.227,19.227,0,0,0,1.844-6.821h2.4A18.89,18.89,0,0,1,55.812,32.278ZM36.27,41.128v2.4a22.021,22.021,0,0,1-8.02-2.12l1.2-2.12A17.48,17.48,0,0,0,36.27,41.128Zm2.4,0a17.48,17.48,0,0,0,6.821-1.844l1.2,2.12a20.332,20.332,0,0,1-8.02,2.12ZM54.614,11.722l-2.028,1.2a18.273,18.273,0,0,0-4.978-4.978l1.2-2.12A20.813,20.813,0,0,1,54.614,11.722ZM26.13,5.823l1.2,2.12a18.273,18.273,0,0,0-4.978,4.978l-2.12-1.2A22.444,22.444,0,0,1,26.13,5.823ZM20.323,34.306l2.12-1.2a18.273,18.273,0,0,0,4.978,4.978l-1.2,2.12A18.967,18.967,0,0,1,20.323,34.306Z" transform="translate(-1.15 -0.2)" fill="#84c225"/>
    <path id="Shape-6" d="M32.691,31.048a1.2,1.2,0,0,0,0,2.4h4.885v2.4a1.2,1.2,0,1,0,2.4,0V33.353h.645a5.439,5.439,0,1,0,0-10.877h-.645V16.392h4.885a1.2,1.2,0,1,0,0-2.4H39.88V11.6a1.2,1.2,0,0,0-2.4,0v2.489h-.645a5.439,5.439,0,1,0,0,10.877h.645v6.084Zm4.24-8.48a3.042,3.042,0,0,1,0-6.084h.645v6.084h-.645Zm3.042,2.489h.645a3.042,3.042,0,1,1,0,6.084h-.645Z" transform="translate(-2.456 -0.998)" fill="#84c225"/>
  </g>
</svg>
