<svg xmlns="http://www.w3.org/2000/svg" width="72.581" height="72.589" viewBox="0 0 72.581 72.589">
  <g id="Page-6" style="isolation: isolate">
    <path id="Shape" d="M71.9,7.468,54.937.094a1.571,1.571,0,0,0-.922,0L37.054,7.468a1.2,1.2,0,0,0-.737,1.106v8.388H21.753a2.38,2.38,0,0,0-2.4,2.4h0V31.435H10.6a4.961,4.961,0,0,0-4.24,2.489L.552,44.617A5,5,0,0,0,0,46.921V54.48a3.685,3.685,0,0,0,.922,2.4,3.538,3.538,0,0,0,.277,5.07,3.48,3.48,0,0,0,2.489.922H7.741a7.289,7.289,0,1,0,13.735,4.885,7.4,7.4,0,0,0,0-4.885H44.06a7.289,7.289,0,1,0,13.735,4.885,7.4,7.4,0,0,0,0-4.885h3.964a3.6,3.6,0,0,0,3.595-3.595h0a3.03,3.03,0,0,0-.369-1.567,1,1,0,0,0,.369-.83V37.519l2.028-1.475A12.277,12.277,0,0,0,72.543,26V8.482A.9.9,0,0,0,71.9,7.468ZM19.356,55.678H3.593a1.22,1.22,0,0,1-1.2-1.2v-1.2h2.4a2.38,2.38,0,0,0,2.4-2.4v-2.4h3.595a3.6,3.6,0,0,0,3.595-3.595h0V33.924h4.978ZM4.884,48.4v2.4H2.4V48.4ZM8.479,35.214a2.525,2.525,0,0,1,2.12-1.291h1.475V44.8a1.22,1.22,0,0,1-1.2,1.2h-8.3c0-.092.092-.184.092-.277ZM19.356,65.357a4.885,4.885,0,1,1-9.771,0,4.466,4.466,0,0,1,.645-2.4h8.388A3.874,3.874,0,0,1,19.356,65.357Zm36.319,0a4.885,4.885,0,1,1-9.771,0,4.466,4.466,0,0,1,.645-2.4h8.388A3.874,3.874,0,0,1,55.675,65.357Zm6.084-4.793H3.593a1.2,1.2,0,0,1,0-2.4H61.758a1.22,1.22,0,0,1,1.2,1.2,1.112,1.112,0,0,1-1.2,1.2Zm1.2-9.218-2.4-1.2V46.829l2.4-1.2Zm0-8.48-4.148,2.12a1.279,1.279,0,0,0-.645,1.106v4.885a1.279,1.279,0,0,0,.645,1.106l4.148,2.12v1.659h-41.2V19.36H36.317V26a12.4,12.4,0,0,0,5.162,10.048l11.707,8.3a2.074,2.074,0,0,0,2.489,0l7.19-5.162Zm7.282-16.777a9.83,9.83,0,0,1-4.148,8.02l-11.522,8.2-11.615-8.2a9.958,9.958,0,0,1-4.148-8.02V9.312L54.568,2.491,70.331,9.312V26.089Z" transform="translate(0.02 -0.025)" fill="#333"/>
    <path id="Shape-2" d="M57.513,5.794,45.437,11.048a1.2,1.2,0,0,0-.737,1.106V26.442a7.554,7.554,0,0,0,3.134,6.084l9.494,6.729a1.254,1.254,0,0,0,1.383,0l9.494-6.729a7.554,7.554,0,0,0,3.134-6.084V12.154a1.2,1.2,0,0,0-.737-1.106L58.435,5.794A1.571,1.571,0,0,0,57.513,5.794Zm11.338,7.19v13.55a4.979,4.979,0,0,1-2.12,4.056l-8.757,6.268L49.217,30.59a5.11,5.11,0,0,1-2.12-4.056V12.984l10.877-4.7Z" transform="translate(-3.477 -0.471)" fill="#84c225"/>
    <path id="Shape-3" d="M51.84,24.469a1.18,1.18,0,0,0-1.659.277,1.193,1.193,0,0,0,.277,1.659L55.343,30A1.257,1.257,0,0,0,57,29.815L66.589,17.74a1.18,1.18,0,0,0-1.844-1.475L55.8,27.419Z" transform="translate(-3.889 -1.263)" fill="#84c225"/>
    <ellipse id="Oval" cx="1.383" cy="1.106" rx="1.383" ry="1.106" transform="translate(13.108 63.949)"/>
    <ellipse id="Oval-2" cx="1.383" cy="1.106" rx="1.383" ry="1.106" transform="translate(49.058 63.949)"/>
  </g>
</svg>
