<svg xmlns="http://www.w3.org/2000/svg" width="72.672" height="72.637" viewBox="0 0 72.672 72.637">
  <g id="Page-2" style="isolation: isolate">
    <path id="Shape" d="M15.214,61.6a2.221,2.221,0,0,0-.645,1.659v9.679a2.38,2.38,0,0,0,2.4,2.4H30.331a2.38,2.38,0,0,0,2.4-2.4V63.264a2.38,2.38,0,0,0-2.4-2.4V58.655a13.049,13.049,0,0,0-2.673-7.927,8.178,8.178,0,0,0-4.056-2.95A26.8,26.8,0,0,1,16.6,43.261a5.689,5.689,0,0,0-6.637-.369L7.378,36.809a3.885,3.885,0,0,0-5.07-1.936,3.855,3.855,0,0,0-1.936,5.07l4.7,10.416a13.427,13.427,0,0,0,2.673,3.779ZM30.239,72.943H16.965V63.264H30.331v9.679ZM2.493,38.929a1.528,1.528,0,0,1,.737-1.936,1.446,1.446,0,0,1,1.936.737h0l2.673,6.36a15,15,0,0,0,3.042,4.517l5.531,5.531a1.24,1.24,0,1,0,1.844-1.659l-.092-.092-5.531-5.531a14.364,14.364,0,0,1-1.475-1.844,3.188,3.188,0,0,1,3.964.092,24.456,24.456,0,0,0,7.743,4.885,6.956,6.956,0,0,1,2.95,2.12,10.624,10.624,0,0,1,2.12,6.453v2.212H17.795L9.406,52.387a9.563,9.563,0,0,1-2.12-3.042Z" transform="translate(-0.052 -2.702)" fill="#333"/>
    <path id="Shape-2" d="M28.7,69.6H27.5a1.2,1.2,0,0,0,0,2.4h1.2a1.22,1.22,0,0,0,1.2-1.2,1.288,1.288,0,0,0-1.2-1.2Z" transform="translate(-2.105 -5.443)" fill="#333"/>
    <path id="Shape-3" d="M72.16,34.4a3.743,3.743,0,0,0-3.5,2.3l-2.581,6.084a5.545,5.545,0,0,0-6.637.369,23.886,23.886,0,0,1-6.913,4.425,8.6,8.6,0,0,0-4.056,2.95A13.049,13.049,0,0,0,45.8,58.459v2.212a2.38,2.38,0,0,0-2.4,2.4h0v9.679a2.38,2.38,0,0,0,2.4,2.4H59.163a2.38,2.38,0,0,0,2.4-2.4h0V63.252a2.65,2.65,0,0,0-.645-1.659l7.467-7.467a13.427,13.427,0,0,0,2.673-3.779l4.7-10.416A4.1,4.1,0,0,0,72.16,34.4ZM59.07,72.931H45.8V63.252H59.163ZM73.45,38.917,68.657,49.333a11.973,11.973,0,0,1-2.12,3.042l-8.388,8.388H48.193V58.551a10.824,10.824,0,0,1,2.12-6.453,5.7,5.7,0,0,1,2.95-2.12,28.219,28.219,0,0,0,7.743-4.885A3.185,3.185,0,0,1,64.97,45,14.364,14.364,0,0,1,63.5,46.844l-5.531,5.531a1.2,1.2,0,0,0,.092,1.751,1.168,1.168,0,0,0,1.659,0L65.246,48.6a15,15,0,0,0,3.042-4.517l2.673-6.36a1.5,1.5,0,0,1,1.936-.737,1.356,1.356,0,0,1,.553,1.936Z" transform="translate(-3.443 -2.69)" fill="#333"/>
    <path id="Shape-4" d="M51,69.6H49.8a1.2,1.2,0,0,0,0,2.4h1.291a1.22,1.22,0,0,0,1.2-1.2A1.376,1.376,0,0,0,51,69.6Z" transform="translate(-3.849 -5.443)" fill="#333"/>
    <path id="Shape-5" d="M49.786,0A16.218,16.218,0,0,0,36.42,6.821,16.511,16.511,0,0,0,22.962,0C13.283,0,7.292,6.084,7.292,15.947a20,20,0,0,0,1.2,7.006H2.5a1.2,1.2,0,1,0,0,2.4h7.19a28.287,28.287,0,0,0,6.545,7.467c.645.553,1.2,1.106,1.751,1.659,4.148,3.964,17.053,14.38,17.606,14.841a1.248,1.248,0,0,0,1.567,0c.553-.461,13.458-10.877,17.606-14.841.553-.553,1.2-1.106,1.751-1.659a29.813,29.813,0,0,0,6.545-7.467h7.19a1.2,1.2,0,1,0,0-2.4H64.166a20,20,0,0,0,1.2-7.006C65.457,6.084,59.465,0,49.786,0ZM9.78,15.947c0-8.48,4.978-13.55,13.274-13.55a14.142,14.142,0,0,1,12.352,7.19,1.292,1.292,0,0,0,1.751.369c.184-.092.277-.277.369-.369A14.142,14.142,0,0,1,49.878,2.4c8.3,0,13.274,5.07,13.274,13.55a18.257,18.257,0,0,1-1.383,7.006h-7.1a1.2,1.2,0,0,0-1.106.737l-1.383-4.7a1.19,1.19,0,0,0-1.2-.83h0a1.313,1.313,0,0,0-1.2.83l-2.3,7.559L44.809,14.2a1.241,1.241,0,0,0-1.475-.922,1.184,1.184,0,0,0-.922.922l-2.12,8.849h-6.36a1.2,1.2,0,0,0-1.106.737l-1.383-4.7a1.19,1.19,0,0,0-1.2-.83,1.313,1.313,0,0,0-1.2.83l-2.3,7.559L24.068,14.288a1.24,1.24,0,0,0-2.4,0l-1.936,8.757H11.163A18.718,18.718,0,0,1,9.78,15.947Zm45.168,15.21c-.645.553-1.291,1.106-1.844,1.659-3.5,3.318-13.827,11.707-16.684,14.1-2.95-2.4-13.274-10.785-16.684-14.1-.553-.553-1.2-1.106-1.844-1.659a31.461,31.461,0,0,1-5.346-5.715h8.112a1.273,1.273,0,0,0,1.2-.922l1.2-4.609L25.635,31.8a1.1,1.1,0,0,0,1.106.922,1.312,1.312,0,0,0,1.2-.83l2.4-8.112L31.627,28.3a1.4,1.4,0,0,0,1.106.922,1.313,1.313,0,0,0,1.2-.83l.922-2.765h6.36a1.273,1.273,0,0,0,1.2-.922l1.2-4.609,2.581,11.891a1.1,1.1,0,0,0,1.106.922h0a1.313,1.313,0,0,0,1.2-.83l2.489-8.112,1.291,4.517a1.4,1.4,0,0,0,1.106.922,1.312,1.312,0,0,0,1.2-.83L55.5,25.81h4.885A59.835,59.835,0,0,1,54.948,31.157Z" transform="translate(-0.15)" fill="#84c225"/>
  </g>
</svg>
